<?xml version="1.0" standalone="no"?>
<!DOCTYPE svg PUBLIC "-//W3C//DTD SVG 20010904//EN"
 "http://www.w3.org/TR/2001/REC-SVG-20010904/DTD/svg10.dtd">
<svg version="1.0" xmlns="http://www.w3.org/2000/svg"
 width="15551.000000pt" height="1687.000000pt" viewBox="0 0 15551.000000 1687.000000"
 preserveAspectRatio="xMidYMid meet">
<metadata>
Created by potrace 1.16, written by Peter Selinger 2001-2019
</metadata>
<g transform="translate(0.000000,1687.000000) scale(0.100000,-0.100000)"
fill="#000000" stroke="none">
<path d="M108199 16778 c-1111 -1963 -2806 -3849 -5119 -5697 -140 -112 -256
-207 -258 -211 -1 -4 53 -54 120 -111 306 -258 619 -539 815 -732 74 -73 126
-118 135 -114 32 13 645 550 983 861 l170 156 3 -3980 2 -3980 675 0 675 0 0
370 0 370 5130 0 5130 0 0 -335 0 -335 680 0 680 0 0 4475 0 4475 -2050 0
-2050 0 202 228 c399 447 928 1062 1416 1644 l232 277 0 570 0 571 -3441 0
-3440 0 65 93 c271 383 753 1104 744 1111 -7 6 -1418 386 -1432 386 -8 0 -37
-41 -67 -92z m5729 -2765 c-8 -10 -99 -119 -203 -243 -364 -433 -844 -985
-1318 -1512 l-239 -268 -3021 0 -3020 0 44 48 c24 26 129 137 235 247 490 512
1034 1132 1468 1673 l58 72 3006 0 c2861 0 3004 -1 2990 -17z m-3038 -4398 l0
-1165 -2245 0 -2245 0 0 1165 0 1165 2245 0 2245 0 0 -1165z m5770 0 l0 -1165
-2240 0 -2240 0 0 1165 0 1165 2240 0 2240 0 0 -1165z m-5770 -3520 l0 -1175
-2245 0 -2245 0 0 1175 0 1175 2245 0 2245 0 0 -1175z m5770 0 l0 -1175 -2240
0 -2240 0 0 1175 0 1175 2240 0 2240 0 0 -1175z"/>
<path d="M6595 16689 c-1923 -104 -3463 -813 -4615 -2124 -1136 -1293 -1781
-2996 -1944 -5130 -31 -396 -38 -693 -33 -1254 5 -558 10 -671 48 -1096 65
-736 199 -1459 389 -2094 472 -1577 1333 -2871 2485 -3736 859 -645 1909
-1052 3085 -1195 414 -50 508 -55 1085 -55 577 0 671 5 1085 55 1869 227 3360
1090 4430 2565 684 944 1155 2091 1394 3400 84 457 138 919 176 1490 18 258
24 1106 11 1410 -59 1365 -275 2472 -687 3512 -531 1342 -1431 2482 -2532
3207 -962 634 -2081 976 -3417 1046 -219 11 -740 11 -960 -1z m698 -3029 c598
-43 1157 -256 1597 -606 126 -100 363 -342 476 -484 195 -246 323 -452 474
-763 112 -231 187 -417 271 -667 209 -628 312 -1193 371 -2030 17 -249 17
-1261 0 -1510 -50 -727 -139 -1285 -282 -1779 -307 -1061 -842 -1876 -1531
-2334 -725 -481 -1707 -589 -2564 -282 -174 62 -443 195 -590 292 -572 377
-1021 982 -1340 1803 -257 663 -391 1317 -457 2245 -21 285 -17 1371 5 1645
64 787 168 1346 359 1930 200 611 419 1041 724 1425 105 131 395 424 514 519
537 427 1264 647 1973 596z"/>
<path d="M92620 15730 l0 -710 -2975 0 -2975 0 0 -570 0 -570 1489 0 1488 0
276 -757 c151 -417 278 -766 282 -775 7 -17 -115 -18 -2469 -18 l-2476 0 0
-570 0 -570 8110 0 8110 0 0 570 0 570 -2441 0 c-1949 0 -2440 3 -2436 13 3 6
143 350 312 762 169 413 310 756 312 763 4 9 298 12 1424 12 l1419 0 0 570 0
570 -3010 0 -3010 0 0 494 0 494 69 56 c149 120 192 208 135 276 -35 41 -67
56 -166 80 -79 19 -119 20 -775 20 l-693 0 0 -710z m2965 -1867 c-4 -10 -131
-359 -282 -775 l-276 -758 -1622 0 c-1289 0 -1624 3 -1628 13 -2 6 -127 350
-277 762 -150 413 -275 756 -277 763 -4 9 436 12 2182 12 2079 0 2187 -1 2180
-17z"/>
<path d="M142889 16413 c-177 -466 -409 -944 -671 -1381 -192 -321 -499 -752
-743 -1047 -373 -449 -873 -944 -1342 -1329 -73 -60 -133 -112 -133 -116 0 -4
204 -259 454 -566 l454 -559 -139 -3 -139 -3 0 -1594 0 -1595 715 0 715 0 0
1025 0 1025 5835 0 5835 0 0 -1025 0 -1025 715 0 715 0 0 1595 0 1595 -3330 0
-3330 0 0 455 0 456 93 107 c293 336 641 810 852 1160 l50 82 562 0 561 0 30
-77 c16 -43 159 -424 317 -848 159 -423 289 -771 291 -773 3 -4 1558 279 1564
284 2 3 -154 322 -348 710 l-352 704 1695 0 1695 0 0 570 0 570 -2755 0
c-1515 0 -2755 2 -2755 5 0 2 14 28 31 57 88 149 283 567 400 856 l54 134 65
38 c164 97 223 195 174 293 -18 36 -60 84 -86 98 -13 7 -1436 149 -1494 149
-6 0 -32 -82 -58 -182 -288 -1095 -855 -2129 -1689 -3081 -156 -179 -512 -553
-560 -590 -20 -15 -37 -35 -37 -43 0 -8 63 -93 140 -189 l140 -174 0 -386 0
-385 -3002 0 -3003 0 70 62 c723 647 1400 1387 1869 2046 l109 152 456 -2 455
-3 246 -877 c135 -482 248 -879 252 -883 4 -5 1555 341 1565 349 1 1 -139 317
-312 701 -173 384 -315 703 -315 707 0 4 491 8 1090 8 l1090 0 0 570 0 570
-1975 0 c-1086 0 -1975 2 -1975 5 0 3 29 56 64 118 101 177 226 412 362 680
l125 247 62 31 c162 82 227 147 227 229 0 41 -5 53 -40 93 -79 89 -24 79 -843
157 -405 38 -741 70 -747 70 -6 0 -15 -12 -21 -27z"/>
<path d="M123990 14495 l0 -1665 -1060 0 -1060 0 0 -680 0 -680 1060 0 1060 0
0 -1730 c0 -951 -3 -1730 -7 -1730 -8 0 -2467 -561 -2470 -564 -1 0 111 -370
248 -821 197 -648 254 -824 272 -838 65 -53 112 -77 154 -77 54 0 87 21 118
74 20 34 55 150 67 220 2 15 138 59 803 262 440 134 803 244 808 244 4 0 6
-1056 5 -2347 l-3 -2348 -22 -41 c-12 -22 -38 -55 -57 -72 -70 -61 -81 -62
-698 -62 -504 0 -558 -2 -558 -16 0 -17 197 -1274 205 -1312 l6 -23 842 4
c812 3 845 4 932 24 443 103 669 341 762 803 16 79 17 302 20 2990 l4 2905
1049 384 c577 211 1054 388 1061 392 9 5 -33 171 -161 631 -95 342 -175 630
-179 640 -5 14 -129 -28 -851 -288 -465 -167 -862 -310 -882 -318 l-38 -14 0
1514 0 1514 1130 0 1130 0 0 680 0 680 -1130 0 -1130 0 0 1448 0 1449 37 26
c60 43 154 139 174 179 49 96 2 157 -156 204 -55 16 -124 18 -772 21 l-713 4
0 -1666z"/>
<path d="M135380 15940 c-32 -18 -590 -243 -875 -353 -1836 -707 -3952 -1325
-6294 -1837 -172 -38 -316 -71 -319 -74 -3 -3 106 -275 241 -603 l246 -598 43
1 c142 5 2296 420 2491 480 16 5 17 -104 17 -2184 l0 -2190 -27 -5 c-16 -3
-700 -99 -1520 -213 l-1493 -208 0 -26 c1 -49 138 -1461 143 -1466 3 -3 653
105 1444 240 792 135 1442 246 1446 246 4 0 8 -1207 10 -2682 2 -2511 4 -2689
20 -2778 104 -559 433 -841 1052 -900 152 -14 3868 -14 4025 1 477 43 851 236
1115 574 123 157 242 386 314 601 46 138 355 1363 346 1372 -6 7 -1419 502
-1420 499 -1 -1 -61 -258 -135 -572 -73 -313 -143 -607 -156 -653 -72 -251
-229 -421 -428 -462 -35 -7 -518 -9 -1506 -8 l-1455 3 -57 23 c-131 53 -204
132 -255 277 l-28 80 -3 2386 -2 2385 852 148 c2155 374 2563 445 3473 602
534 92 973 170 977 174 8 6 -199 1480 -208 1489 -2 3 -1144 -201 -2537 -452
-1392 -252 -2538 -457 -2544 -457 -10 0 -13 458 -13 2258 l0 2259 243 63
c1143 297 2285 636 2921 868 l159 58 99 -22 c283 -64 486 -48 526 41 19 42 14
124 -12 186 -19 48 -859 1392 -890 1426 -7 7 -17 9 -26 3z"/>
<path d="M28040 14155 l0 -1725 -685 0 -685 0 0 -1320 0 -1320 685 0 684 0 4
-3087 c4 -3317 1 -3151 52 -3568 117 -949 413 -1661 880 -2119 505 -495 1242
-792 2205 -891 462 -47 1155 -43 1740 11 483 44 1125 165 1530 288 l45 13 0
1334 0 1334 -138 3 -138 3 -62 -35 c-182 -101 -652 -255 -957 -313 -132 -24
-477 -24 -640 1 -434 66 -686 212 -886 512 -120 181 -215 465 -260 784 -29
201 -33 640 -34 3178 l0 2552 1560 0 1560 0 0 1320 0 1320 -1560 0 -1560 0 0
1725 0 1725 -1670 0 -1670 0 0 -1725z"/>
<path d="M40205 12763 c-780 -37 -1296 -101 -2200 -273 -543 -104 -1056 -218
-1310 -291 -38 -11 -78 -23 -87 -25 -17 -5 -18 -84 -18 -1470 l0 -1464 155 0
155 0 163 69 c320 135 1142 441 1480 550 339 109 745 194 1087 227 217 20 801
15 1058 -10 574 -56 969 -154 1317 -328 144 -72 242 -139 341 -231 273 -255
424 -659 424 -1133 l0 -104 -26 0 c-150 0 -1177 -93 -1729 -156 -1044 -120
-1694 -232 -2237 -388 -1094 -314 -1847 -777 -2367 -1455 -511 -666 -738
-1478 -718 -2576 9 -517 70 -894 212 -1321 232 -697 681 -1314 1275 -1751 446
-328 916 -514 1521 -600 177 -25 816 -25 1034 0 344 40 679 112 970 207 475
156 840 357 1268 699 129 103 560 467 688 583 42 37 79 68 83 68 3 0 6 -283 6
-630 l0 -630 1660 0 1661 0 -4 4292 c-3 3161 -7 4326 -15 4418 -7 69 -19 186
-27 260 -101 873 -389 1574 -867 2110 -284 318 -681 603 -1118 801 -703 318
-1604 499 -2740 549 -199 9 -934 11 -1095 3z m2545 -8021 l0 -1258 -106 -95
c-250 -221 -501 -385 -801 -522 -300 -137 -557 -206 -855 -229 -297 -23 -801
16 -1015 78 -196 57 -398 178 -554 334 -209 209 -287 377 -318 690 -57 575 20
985 240 1280 30 41 101 118 156 171 297 284 693 443 1423 569 395 68 1598 227
1808 239 l22 1 0 -1258z"/>
<path d="M21640 12753 c-919 -43 -1875 -274 -2615 -633 -906 -438 -1627 -1099
-2149 -1970 -535 -893 -808 -1825 -903 -3090 -21 -285 -24 -1105 -5 -1375 72
-1009 243 -1746 581 -2510 114 -256 304 -602 454 -824 175 -260 427 -562 643
-771 938 -907 2155 -1409 3754 -1547 260 -22 1102 -25 1330 -5 225 20 509 58
685 91 650 123 1444 403 2080 735 l160 84 3 1661 2 1661 -238 0 -238 0 -159
-171 c-579 -622 -1010 -917 -1658 -1134 -582 -194 -1346 -228 -1932 -84 -764
188 -1342 682 -1674 1432 -238 536 -361 1226 -361 2027 0 1047 219 1927 635
2550 116 173 184 259 315 394 394 407 874 629 1500 697 132 14 509 14 655 0
279 -28 515 -79 762 -167 360 -128 615 -257 938 -475 266 -179 420 -311 800
-681 l173 -168 241 0 241 0 0 1659 0 1658 -237 121 c-468 237 -907 414 -1412
567 -486 147 -988 232 -1555 265 -160 9 -649 11 -816 3z"/>
<path d="M76295 12754 c-528 -32 -841 -68 -1201 -139 -896 -178 -1618 -499
-2257 -1006 -168 -133 -467 -426 -605 -592 -387 -466 -636 -982 -750 -1557
-46 -229 -63 -397 -69 -670 -22 -977 225 -1795 738 -2441 106 -134 334 -361
474 -473 566 -451 1294 -760 2335 -990 203 -45 259 -56 700 -136 305 -56 498
-99 799 -175 550 -141 870 -276 1025 -432 229 -231 262 -701 70 -1001 -82
-127 -258 -270 -424 -342 -306 -134 -677 -196 -1230 -207 -647 -13 -1169 54
-1725 222 -452 137 -794 274 -1256 506 -439 219 -663 368 -1148 763 l-94 76
-159 0 -158 0 0 -1598 0 -1599 178 -85 c346 -168 705 -305 1155 -442 812 -247
1367 -351 2237 -418 227 -18 1259 -18 1475 0 927 75 1650 248 2318 553 822
376 1505 986 1903 1696 241 432 384 895 446 1448 17 159 18 747 0 910 -33 304
-101 629 -183 860 -284 813 -834 1411 -1661 1804 -345 164 -636 263 -1166 396
-203 50 -305 72 -882 190 -725 148 -1258 279 -1565 386 -303 104 -450 183
-571 303 -68 67 -89 97 -127 176 -55 115 -73 180 -89 327 -49 461 225 768 858
963 644 199 1559 181 2374 -46 753 -209 1544 -600 2147 -1061 l123 -93 145 0
145 0 0 1536 0 1535 -132 64 c-384 182 -912 358 -1594 529 -502 127 -953 199
-1529 247 -126 10 -949 20 -1070 13z"/>
<path d="M55600 12459 c-408 -45 -824 -166 -1275 -372 -489 -222 -1013 -610
-1682 -1245 l-183 -174 0 881 0 881 -1670 0 -1670 0 0 -6050 0 -6050 1670 0
1670 0 0 4049 0 4048 123 48 c527 205 998 327 1472 379 350 39 782 54 1100 37
542 -28 880 -70 1113 -137 71 -21 104 -24 237 -24 l155 0 0 1849 0 1849 -62 6
c-199 21 -304 26 -593 30 -176 3 -358 1 -405 -5z"/>
<path d="M58470 8343 c0 -2576 4 -4158 10 -4278 50 -954 228 -1721 541 -2335
452 -887 1191 -1452 2157 -1650 316 -64 437 -75 872 -75 323 0 422 3 540 18
479 60 847 165 1201 343 417 208 1050 658 1629 1157 l145 125 3 -659 2 -659
1670 0 1670 0 0 6050 0 6050 -1670 0 -1670 0 0 -4288 0 -4287 -167 -112 c-190
-125 -261 -167 -419 -246 -321 -161 -677 -277 -1019 -334 -157 -26 -586 -26
-770 1 -639 90 -960 350 -1162 941 -94 275 -148 585 -173 985 -27 445 -30 864
-30 4033 l0 3307 -1680 0 -1680 0 0 -4087z"/>
<path d="M88160 7655 l0 -2695 2230 0 2230 0 0 -490 0 -490 -3645 0 -3645 0 0
-680 0 -680 3645 0 3645 0 0 -1275 0 -1275 715 0 715 0 0 1275 0 1275 3715 0
3715 0 0 680 0 680 -3715 0 -3715 0 0 490 0 490 2230 0 2230 0 0 2695 0 2695
-5175 0 -5175 0 0 -2695z m8920 990 l0 -565 -3745 0 -3745 0 0 565 0 565 3745
0 3745 0 0 -565z m0 -1980 l0 -565 -3745 0 -3745 0 0 565 0 565 3745 0 3745 0
0 -565z"/>
<path d="M143180 4680 l0 -4540 715 0 715 0 0 285 0 285 3570 0 3570 0 0 -210
0 -210 715 0 715 0 0 2160 0 2160 -4285 0 -4285 0 0 460 0 460 3930 0 3930 0
0 1845 0 1845 -4645 0 -4645 0 0 -4540z m7860 2695 l0 -705 -3215 0 -3215 0 0
705 0 705 3215 0 3215 0 0 -705z m710 -4715 l0 -810 -3570 0 -3570 0 0 810 0
810 3570 0 3570 0 0 -810z"/>
<path d="M103010 920 l0 -640 8515 0 8515 0 0 640 0 640 -8515 0 -8515 0 0
-640z"/>
</g>
</svg>
